<svg xmlns="http://www.w3.org/2000/svg" width="262.695" height="252.679" viewBox="0 0 262.695 252.679">
  <g id="Group_15" data-name="Group 15" transform="translate(262.695 151.519) rotate(150)">
    <g id="Group_12" data-name="Group 12" transform="translate(0 0)">
      <g id="Group_11" data-name="Group 11">
        <g id="Polygon_1" data-name="Polygon 1" transform="translate(202.322 174.958) rotate(180)" fill="none">
          <path d="M151.741,0l50.58,87.479-50.58,87.479H50.58L0,87.479,50.58,0Z" stroke="none"/>
          <path d="M 52.31118774414062 3.000015258789062 L 3.465362548828125 87.47920227050781 L 52.3111572265625 171.9583892822266 L 150.0103912353516 171.9583892822266 L 198.8561553955078 87.47920227050781 L 150.0103912353516 3.000015258789062 L 52.31118774414062 3.000015258789062 M 50.58039855957031 1.52587890625e-05 L 151.7411499023438 1.52587890625e-05 L 202.3215179443359 87.47920227050781 L 151.7411499023438 174.9583892822266 L 50.58038330078125 174.9583892822266 L -1.52587890625e-05 87.47920227050781 L 50.58039855957031 1.52587890625e-05 Z" stroke="none" fill="#a600eb"/>
        </g>
        <g id="Polygon_2" data-name="Polygon 2" transform="translate(163.35 141.791) rotate(180)" fill="none">
          <path d="M93.284,0l31.094,54.312L93.284,108.623H31.094L0,54.312,31.095,0Z" stroke="none"/>
          <path d="M 32.83383941650391 3 L 3.456886291503906 54.31172943115234 L 32.83381652832031 105.6234588623047 L 91.54418182373047 105.6234588623047 L 120.9211120605469 54.31172943115234 L 91.54418182373047 3 L 32.83383941650391 3 M 31.09450531005859 0 L 93.28350830078125 0 L 124.3779983520508 54.31172943115234 L 93.28350830078125 108.6234588623047 L 31.09449005126953 108.6234588623047 L 0 54.31172943115234 L 31.09450531005859 0 Z" stroke="none" fill="#a600eb"/>
        </g>
        <line id="Line_2" data-name="Line 2" x1="137.909" y1="0.301" transform="translate(31.868 141.023)" fill="none" stroke="#a600eb" stroke-width="3"/>
        <line id="Line_3" data-name="Line 3" x1="138.738" y2="0.301" transform="translate(30.964 34.009)" fill="none" stroke="#a600eb" stroke-width="3"/>
      </g>
    </g>
  </g>
</svg>
