<svg id="Layer_1" data-name="Layer 1" xmlns="http://www.w3.org/2000/svg" viewBox="0 0 55 18.84"><defs><style>.cls-1{fill:#fff;}.cls-2{fill:#fed10a;}.cls-3{fill:#24bbb1;}.cls-4{fill:#ef5098;}.cls-5{fill:#17a8e0;}.cls-6{fill:#93c83e;}.cls-7{fill:#0779a1;}</style></defs><path id="Path_7068" data-name="Path 7068" class="cls-1" d="M19.93,28.23a3.71,3.71,0,0,0-2.46-3.51,5.66,5.66,0,0,0,.09-1,5.34,5.34,0,0,0-9.68-3.14,2.84,2.84,0,0,0-4,.5,2.88,2.88,0,0,0-.59,1.75,3,3,0,0,0,.17,1A3.78,3.78,0,0,0,1,27.32a3.72,3.72,0,0,0,2.47,3.52,5.86,5.86,0,0,0-.09,1A5.33,5.33,0,0,0,13,35a2.8,2.8,0,0,0,1.74.6,2.84,2.84,0,0,0,2.84-2.84,2.8,2.8,0,0,0-.18-1,3.74,3.74,0,0,0,2.5-3.51" transform="translate(-1 -18.35)"/><path id="Path_7069" data-name="Path 7069" class="cls-2" d="M8.45,26.47l4.14,1.89,4.18-3.66a4.1,4.1,0,0,0,.09-.92,4.67,4.67,0,0,0-8.52-2.64l-.7,3.6Z" transform="translate(-1 -18.35)"/><path id="Path_7070" data-name="Path 7070" class="cls-3" d="M4.16,30.86a4.81,4.81,0,0,0-.09.93,4.68,4.68,0,0,0,8.55,2.64l.69-3.59-.92-1.76-4.16-1.9Z" transform="translate(-1 -18.35)"/><path id="Path_7071" data-name="Path 7071" class="cls-4" d="M4.14,23.69,7,24.36l.63-3.23a2.24,2.24,0,0,0-3.14.42A2.3,2.3,0,0,0,4,22.91a2.32,2.32,0,0,0,.13.78" transform="translate(-1 -18.35)"/><path id="Path_7072" data-name="Path 7072" class="cls-5" d="M3.9,24.37a3.12,3.12,0,0,0-.14,5.89l4-3.59L7,25.11Z" transform="translate(-1 -18.35)"/><path id="Path_7073" data-name="Path 7073" class="cls-6" d="M13.35,34.42a2.28,2.28,0,0,0,1.35.47,2.25,2.25,0,0,0,2.24-2.24,2.33,2.33,0,0,0-.14-.78L14,31.21Z" transform="translate(-1 -18.35)"/><path id="Path_7074" data-name="Path 7074" class="cls-7" d="M13.93,30.46l3.12.73a3.14,3.14,0,0,0,.13-5.91l-4.07,3.58Z" transform="translate(-1 -18.35)"/><path id="Path_7075" data-name="Path 7075" d="M27.47,31.59l.37,0,0,.77a18.14,18.14,0,0,1-2.55.21,2.29,2.29,0,0,1-2-.81,4.42,4.42,0,0,1-.58-2.54c0-2.29.9-3.43,2.73-3.43a2.51,2.51,0,0,1,2,.74,3.39,3.39,0,0,1,.65,2.31l-.06.74h-4.3a2.59,2.59,0,0,0,.39,1.6,1.59,1.59,0,0,0,1.36.52c.66,0,1.31,0,2-.07m-.35-2.82a2.8,2.8,0,0,0-.39-1.7,1.46,1.46,0,0,0-1.24-.49,1.56,1.56,0,0,0-1.3.52,2.67,2.67,0,0,0-.45,1.67Z" transform="translate(-1 -18.35)"/><rect id="Rectangle_418" data-name="Rectangle 418" x="28.46" y="4.7" width="0.97" height="9.36"/><path id="Path_7076" data-name="Path 7076" d="M36.59,27.86v3.21c0,.33.81.39.81.39l0,.86c-.68,0-1.25.06-1.6-.27a5.73,5.73,0,0,1-2.34.48A1.75,1.75,0,0,1,32,32a2.11,2.11,0,0,1-.47-1.47,1.85,1.85,0,0,1,.48-1.4,2.46,2.46,0,0,1,1.51-.55l2-.19v-.55a1.33,1.33,0,0,0-.29-1,1.07,1.07,0,0,0-.79-.28H32v-.87h2.5a2.16,2.16,0,0,1,1.6.51,2.09,2.09,0,0,1,.52,1.6m-4,2.65q0,1.2,1,1.2a5.43,5.43,0,0,0,1.74-.29l.29-.1V29.16l-1.92.18a1.27,1.27,0,0,0-.85.34,1.14,1.14,0,0,0-.25.83" transform="translate(-1 -18.35)"/><path id="Path_7077" data-name="Path 7077" d="M40.42,26.62c-1,0-1.42.33-1.42,1a.67.67,0,0,0,.33.65,5.79,5.79,0,0,0,1.48.4,3.86,3.86,0,0,1,1.64.56,1.63,1.63,0,0,1,.48,1.37,1.73,1.73,0,0,1-.65,1.48,3.23,3.23,0,0,1-1.89.46c-.54,0-2.34-.2-2.34-.2l.06-.85c1,.09,1.78.17,2.29.17a2.29,2.29,0,0,0,1.15-.23.86.86,0,0,0,.4-.81.8.8,0,0,0-.34-.77,4.77,4.77,0,0,0-1.48-.39,3.74,3.74,0,0,1-1.63-.53,1.52,1.52,0,0,1-.48-1.3,1.59,1.59,0,0,1,.67-1.41,2.91,2.91,0,0,1,1.67-.46c.53,0,2.36.14,2.36.14v.85c-1,0-1.76-.12-2.31-.12" transform="translate(-1 -18.35)"/><path id="Path_7078" data-name="Path 7078" d="M47.64,26.74H45.57v3.12a4.32,4.32,0,0,0,.16,1.47c.11.23.36.35.77.35l1.17-.08.06.8a9.7,9.7,0,0,1-1.32.15A1.74,1.74,0,0,1,45,32.06a3.21,3.21,0,0,1-.39-1.89V26.74h-.92v-.85h.92v-2h1v2h2.07Z" transform="translate(-1 -18.35)"/><path id="Path_7079" data-name="Path 7079" d="M49,24.41V23.28h1v1.14Zm0,1.48h1V32.4H49Z" transform="translate(-1 -18.35)"/><path id="Path_7080" data-name="Path 7080" d="M54.22,25.75a10.49,10.49,0,0,1,1.47.16l.31,0,0,.79c-.51-.06-1-.1-1.54-.12a1.76,1.76,0,0,0-1.5.54,3.35,3.35,0,0,0-.4,2,3.91,3.91,0,0,0,.36,2,1.76,1.76,0,0,0,1.54.56L56,31.54l0,.8a13.89,13.89,0,0,1-1.81.19,2.46,2.46,0,0,1-2.11-.79,4.59,4.59,0,0,1-.59-2.64,4.26,4.26,0,0,1,.62-2.61,2.72,2.72,0,0,1,2.11-.74" transform="translate(-1 -18.35)"/></svg>